<svg width="36" height="36" viewBox="0 0 24 24" fill="none" xmlns="http://www.w3.org/2000/svg">
  <path d="M12 0C5.37 0 0 5.37 0 12c0 5.31 3.438 9.801 8.205 11.385.6.111.82-.261.82-.577 0-.285-.01-1.24-.015-2.25-3.338.724-4.042-1.61-4.042-1.61C4.07 18.068 3.4 17.6 3.4 17.6c-1.087-.744.083-.729.083-.729 1.205.084 1.838 1.24 1.838 1.24 1.07 1.834 2.809 1.305 3.495.998.109-.777.417-1.305.76-1.605-2.665-.305-5.466-1.332-5.466-5.93 0-1.31.465-2.38 1.235-3.22-.135-.304-.54-1.523.105-3.176 0 0 1.005-.322 3.3 1.23a11.547 11.547 0 0 1 3-.41 11.55 11.55 0 0 1 3 .41c2.292-1.552 3.297-1.23 3.297-1.23.645 1.653.24 2.872.12 3.176.765.84 1.23 1.91 1.23 3.22 0 4.61-2.805 5.625-5.475 5.92.43.36.81 1.096.81 2.213 0 1.6-.015 2.885-.015 3.28 0 .32.21.695.825.576C20.565 21.8 24 17.31 24 12c0-6.63-5.37-12-12-12z" fill="white"/>
</svg>